<?xml version="1.0" standalone="no"?>
<!DOCTYPE svg PUBLIC "-//W3C//DTD SVG 1.1//EN" "http://www.w3.org/Graphics/SVG/1.1/DTD/svg11.dtd" >
<svg xmlns="http://www.w3.org/2000/svg">
<metadata>Generated by IcoMoon</metadata>
<defs>
<font id="icomoon" horiz-adv-x="1024">
<font-face units-per-em="1024" ascent="960" descent="-64" />
<missing-glyph horiz-adv-x="1024" />
<glyph unicode="&#x20;" horiz-adv-x="512" d="" />
<glyph unicode="&#xe900;" glyph-name="ico_add_to_cart" horiz-adv-x="1208" d="M885.616-63.347c-63.15 0-114.564 51.414-114.564 114.564s51.414 114.564 114.564 114.564 114.564-51.414 114.564-114.564-51.414-114.564-114.564-114.564zM885.616 119.211c-37.49 0-67.993-30.503-67.993-67.993s30.503-67.993 67.993-67.993 67.993 30.503 67.993 67.993-30.503 67.993-67.993 67.993zM513.049-61.251c-62.032 0-112.467 50.438-112.467 112.467s50.436 112.467 112.467 112.467 112.467-50.438 112.467-112.467-50.436-112.467-112.467-112.467zM513.049 117.114c-36.326 0-65.897-29.572-65.897-65.897s29.572-65.897 65.897-65.897 65.897 29.572 65.897 65.897-29.572 65.897-65.897 65.897zM792.473 540.21v372.566h-232.854v-372.566h-93.141l209.568-187.726 209.568 187.726zM1203.601 809.39c-4.331 6.426-11.549 10.246-19.281 10.246h-345.274v-46.571h310.906l-204.4-512.279h-508.831l-225.636 682.589c-3.167 9.548-12.062 15.974-22.121 15.974h-188.193v-46.571h171.38l225.681-682.587c3.12-9.501 12.017-15.976 22.076-15.976h541.431c9.548 0 18.117 5.822 21.656 14.624l222.981 558.85c2.794 7.218 1.958 15.319-2.375 21.7zM326.766 819.635h186.283v-46.571h-186.283v46.571z" />
<glyph unicode="&#xe901;" glyph-name="arrow-right" horiz-adv-x="936" d="M881.256 448l-361.6-361.6v206.631h-464.913v309.944h464.913v206.631z" />
<glyph unicode="&#xe902;" glyph-name="ico_eye" horiz-adv-x="1123" d="M1122.916 450.079c-0.020 0.462-0.060 0.916-0.1 1.379-0.020 0.23-0.025 0.462-0.060 0.7-0.025 0.34-0.095 0.665-0.14 0.993-0.049 0.385-0.098 0.78-0.155 1.168-0.020 0.049-0.020 0.1-0.020 0.14-1.379 8.652-5.455 16.766-11.69 23-35.708 42.305-78.166 79.97-121.352 114.359-93.012 74.115-199.368 136.1-316.785 161.060-67.863 14.407-136.14 15.032-204.36 2.827-62.046-11.095-121.862-34.183-177.827-62.778-87.622-44.767-167.632-106.486-237.346-175.666-12.898-12.809-25.74-25.878-37.467-39.785-15.619-18.515-15.619-40.425 0-58.938 35.708-42.305 78.166-79.95 121.352-114.359 93.018-74.115 199.391-136.1 316.805-161.043 67.863-14.424 136.159-15.047 204.379-2.845 62.046 11.095 121.842 34.183 177.827 62.778 87.622 44.781 167.632 106.486 237.346 175.666 12.898 12.809 25.74 25.878 37.467 39.785 6.252 6.254 10.324 14.368 11.69 23.022 0 0.046 0.020 0.1 0.020 0.14 0.060 0.382 0.105 0.78 0.151 1.168 0.049 0.328 0.1 0.66 0.14 0.993 0.020 0.23 0.025 0.459 0.060 0.7 0.025 0.452 0.077 0.899 0.1 1.371 0.028 0.7 0.060 1.379 0.060 2.099s-0.046 1.379-0.075 2.084zM563.434 232.676c-118.917 0-215.319 96.4-215.319 215.319s96.4 215.319 215.319 215.319 215.319-96.4 215.319-215.319c0-118.917-96.4-215.319-215.319-215.319zM634.702 447.994c0-39.363-31.911-71.277-71.277-71.277s-71.277 31.911-71.277 71.277c0 39.363 31.911 71.277 71.277 71.277s71.277-31.911 71.277-71.277z" />
<glyph unicode="&#xe903;" glyph-name="ico_facebook" d="M685.57 718.479c0 0-67.464 11.037-78.501 11.037-17.177 0-56.427-6.128-56.427-46.609 0-39.251 0-103.036 0-103.036h139.838l-13.498-127.571-126.352-2.449v-415.847h-170.512v417.065l-85.871 2.449 2.449 128.801c0 0 25.765 0 85.871 0 0 51.518-14.716 195.047 53.979 245.335 98.139 71.143 272.318 22.086 272.318 22.086l-23.304-131.25z" />
<glyph unicode="&#xe904;" glyph-name="ico_phone" horiz-adv-x="805" d="M69.071 836.092c30.767 30.786 123.554 35.912 124.27 19.634 0.691-16.28 83.606-196.851 84.342-213.131 0.71-16.289-54.682-71.78-70.888-88.041-16.042-16.097 108.337-157.003 110.691-159.656 2.677-2.372 143.249-127.068 159.301-110.992 16.192 16.27 71.577 71.771 87.813 71.047s196.393-83.82 212.638-84.523c16.236-0.746 11.125-93.731-19.625-124.562-26.242-26.306-162.229-121.871-398.709 48.776-25.942 14.961-67.019 49.264-129.294 111.645-0.055 0.034-0.080 0.064-0.091 0.089-0.081 0.045-0.091 0.091-0.155 0.146-0.036 0.045-0.091 0.081-0.135 0.146-0.045 0.036-0.1 0.080-0.146 0.133-62.245 62.409-96.439 103.591-111.345 129.561-170.211 237.053-74.887 373.387-48.665 399.708z" />
<glyph unicode="&#xe905;" glyph-name="ico_search" horiz-adv-x="1023" d="M947.895 122.512l-267.041 267.041c30.031 50.405 48.261 109.388 48.261 172.667 0 183.391-158.725 342.109-342.109 342.109-183.391-1.070-331.385-149.071-331.385-332.462s158.725-342.109 342.109-342.109c61.133 0 117.97 16.089 167.301 45.043l268.112-268.112c20.378-20.378 52.549-20.378 71.856 0l50.405 50.405c20.378 20.378 12.871 45.043-7.506 65.421zM134.977 571.867c0 139.418 112.604 252.025 252.025 252.025s262.753-124.406 262.753-262.753c0-139.418-112.604-252.025-252.025-252.025-138.347 0-262.753 123.33-262.753 262.753z" />
<glyph unicode="&#xe906;" glyph-name="ico_twitter" horiz-adv-x="767" d="M665.010 165.984c0-25.806-9.253-47.945-27.761-66.341-18.508-18.443-40.694-27.644-66.613-27.644h-186.57c-77.731 0-144.164 27.467-199.319 82.461-55.176 54.984-82.743 121.17-82.743 198.648v376.817c0 26.553 9.189 48.857 27.566 66.952 18.369 18.072 40.82 27.132 67.3 27.132 25.721 0 47.821-9.236 66.157-27.661 18.401-18.416 27.613-40.517 27.613-66.341v-136.439h265.627c24.118 0 44.773-8.545 62.017-25.653 17.22-17.084 25.806-37.577 25.806-61.507 0-23.895-8.584-44.426-25.739-61.512-17.163-17.072-37.777-25.636-61.79-25.636h-265.909v-66.040c0-25.898 9.046-47.892 27.209-66.040 18.153-18.096 40.189-27.15 66.109-27.15h186.631c25.898 0 48.136-9.236 66.644-27.663 18.508-18.442 27.761-40.548 27.761-66.341z" />
<glyph unicode="&#xe907;" glyph-name="close" horiz-adv-x="819" d="M782.995 40.107c-8.387 0-16.784 3.205-23.186 9.606l-746.999 746.989c-12.811 12.794-12.811 33.578 0 46.37 12.811 12.811 33.568 12.811 46.38 0l746.999-746.989c12.811-12.794 12.811-33.578 0-46.37-6.41-6.41-14.807-9.606-23.194-9.606zM36.005 40.107c-8.387 0-16.784 3.205-23.186 9.606-12.811 12.794-12.811 33.578 0 46.37l746.989 746.999c12.811 12.811 33.568 12.811 46.38 0 12.811-12.794 12.811-33.578 0-46.37l-746.999-746.999c-6.402-6.41-14.798-9.606-23.186-9.606z" />
<glyph unicode="&#xe908;" glyph-name="ico_cart" horiz-adv-x="1013" d="M905.573 174.798c0-41.145-33.36-74.521-74.521-74.521s-74.521 33.36-74.521 74.521c0 41.145 33.36 74.521 74.521 74.521s74.521-33.36 74.521-74.521zM309.474 348.659h596.105v-49.67h-596.105v49.67zM458.485 174.798c0-41.145-33.36-74.521-74.521-74.521s-74.521 33.36-74.521 74.521c0 41.145 33.36 74.521 74.521 74.521s74.521-33.36 74.521-74.521zM11.422 795.723h149.021v-49.67h-149.021v49.67zM359.145 298.979h-49.67l-198.702 496.744h49.67zM309.474 547.341h596.105v-149.021h-536.482zM229.988 746.053h675.571v-149.021h-615.97z" />
<glyph unicode="&#xe909;" glyph-name="prev" horiz-adv-x="819" d="M158.813 373.317v0l437.365-437.317 84.602 84.664-437.317 437.331 417.39 417.354-84.616 84.651-502.018-502.005z" />
<glyph unicode="&#xe90a;" glyph-name="grid" horiz-adv-x="1280" d="M0 857.6h358.4v-358.4h-358.4v358.4zM0 396.8h358.4v-358.4h-358.4v358.4zM460.8 857.6h358.4v-358.4h-358.4v358.4zM460.8 396.8h358.4v-358.4h-358.4v358.4zM921.6 857.6h358.4v-358.4h-358.4v358.4zM921.6 396.8h358.4v-358.4h-358.4v358.4z" />
<glyph unicode="&#xe90b;" glyph-name="mail" horiz-adv-x="819" d="M619.712 654.777l-31.733-269.058c-2.374-18.932-3.546-37.056-3.546-54.403 0-25.823 9.264-38.643 27.792-38.643 29.571 0 57.958 20.297 85.156 60.909s40.595 89.894 40.595 147.632c0 83.387-29.956 151.389-90.269 203.419-60.314 52.25-133.246 78.256-219.19 78.256-94.218 0-173.464-32.328-237.526-96.977-64.263-64.658-96.188-144.296-96.188-239.102 0-88.5 30.166-165.373 90.279-230.607 60.314-65.253 144.875-97.976 253.883-97.976 84.753 0 171.1 22.67 259.206 68.203l34.097-78.641c-94.218-48.090-192.185-72.144-293.294-72.144-134.428 0-241.063 40.603-320.308 121.617-79.044 81.005-118.666 177.789-118.666 290.151 0 117.475 41.602 215.634 124.778 294.476 83.168 79.044 183.699 118.465 301.377 118.465 110.978 0 204.208-34.097 279.503-101.906 75.498-68.002 113.343-153.754 113.343-257.236 0-75.094-21.287-142.107-63.668-200.844-42.381-58.546-93.825-87.914-154.734-87.914-47.311 0-80.025 19.903-98.168 59.919-33.117-41.583-73.518-62.284-121.223-62.284-48.878 0-90.865 20.297-125.567 61.294-34.885 40.805-52.231 94.42-52.231 161.038 0 68.597 19.518 124.183 58.747 167.159 39.421 42.967 86.137 64.456 140.338 64.456 52.434 0 90.076-16.558 113.141-49.666l4.737 40.411 99.34-0.009zM388.711 304.11c30.743 0 58.536 14.973 83.378 44.938 24.833 29.763 37.259 68.597 37.259 116.303 0 27.005-9.465 51.040-28.581 72.529-18.932 21.287-42.381 31.934-70.173 31.934-29.965 0-54.806-13.205-74.517-39.622-19.518-26.216-29.368-60.515-29.368-102.503 0-35.673 7.496-65.235 22.872-88.5 15.166-23.248 34.876-35.078 59.132-35.078z" />
<glyph unicode="&#xe90c;" glyph-name="up-direction" horiz-adv-x="819" d="M0 38.5l409.5 819 409.5-819z" />
<glyph unicode="&#xe90d;" glyph-name="down" horiz-adv-x="819" d="M469.23 273.108v0l349.765 349.797-67.71 67.657-349.786-349.765-333.805 333.817-67.699-67.679 401.495-401.516z" />
<glyph unicode="&#xe90e;" glyph-name="ico_video" horiz-adv-x="819" d="M311.196 628.224v-344.064l286.72 172.032-286.72 172.032zM802.716 448c0 217.167-176.049 393.216-393.216 393.216s-393.216-176.049-393.216-393.216c0-217.167 176.049-393.216 393.216-393.216s393.216 176.049 393.216 393.216zM24.476 448c0 212.643 172.381 385.024 385.024 385.024s385.024-172.381 385.024-385.024c0-212.643-172.381-385.024-385.024-385.024s-385.024 172.381-385.024 385.024z" />
<glyph unicode="&#xe90f;" glyph-name="ico_file" horiz-adv-x="887" d="M813.967 735.847l-143.741 143.741v-143.741h131.993zM817.261 709.932c-1.107-0.14-2.161-0.491-3.304-0.491h-143.729c-14.582 0-26.41 11.828-26.41 26.41v143.729c0 0.14 0.059 0.267 0.059 0.409h-548.173c-14.582 0-26.41-11.828-26.41-26.41v-811.18c0-14.582 11.828-26.41 26.41-26.41h695.169c14.582 0 26.41 11.828 26.41 26.41v667.439c-0.013 0.027-0.023 0.059-0.023 0.083zM517.552 174.403h-165.051c-14.582 0-26.41 11.816-26.41 26.412 0 14.594 11.828 26.41 26.41 26.41h165.061c14.594 0 26.41-11.816 26.41-26.41 0-14.596-11.828-26.412-26.421-26.412zM517.552 306.796h-260.788c-14.582 0-26.41 11.816-26.41 26.41s11.828 26.41 26.41 26.41h260.793c14.594 0 26.41-11.816 26.41-26.41s-11.828-26.41-26.421-26.41zM517.552 439.196h-260.788c-14.582 0-26.41 11.828-26.41 26.41 0 14.584 11.828 26.41 26.41 26.41h260.793c14.594 0 26.41-11.826 26.41-26.41 0-14.582-11.828-26.41-26.421-26.41zM517.552 571.6h-260.788c-14.582 0-26.41 11.826-26.41 26.41 0 14.582 11.828 26.41 26.41 26.41h260.793c14.594 0 26.41-11.828 26.41-26.41 0-14.584-11.828-26.41-26.421-26.41z" />
<glyph unicode="&#xe910;" glyph-name="ico_mail" horiz-adv-x="1086" d="M361.052 446.868l-361.052-288.875v577.781zM723.298 446.868l361.027-288.875v577.781zM1084.327 803.038l-539.936-440.553-544.385 440.553zM1085.995 92.962l-402.766 318.294-138.842-111.116-138.896 111.101-405.485-318.27h1085.996z" />
<glyph unicode="&#xe911;" glyph-name="ico_grid" horiz-adv-x="819" d="M360.348 783.872h-262.144c-9.077 0-16.384-7.34-16.384-16.384v-278.528c0-9.044 7.307-16.384 16.384-16.384h262.144c9.060 0 16.384 7.34 16.384 16.384v278.528c0 9.044-7.324 16.384-16.384 16.384zM343.964 505.344h-229.376v245.76h229.376v-245.76zM360.348 423.424h-262.144c-9.077 0-16.384-7.34-16.384-16.384v-278.528c0-9.044 7.307-16.384 16.384-16.384h262.144c9.060 0 16.384 7.34 16.384 16.384v278.528c0 9.044-7.324 16.384-16.384 16.384zM343.964 144.896h-229.376v245.76h229.376v-245.76zM720.796 783.872h-262.144c-9.077 0-16.384-7.34-16.384-16.384v-278.528c0-9.044 7.307-16.384 16.384-16.384h262.144c9.060 0 16.384 7.34 16.384 16.384v278.528c0 9.044-7.324 16.384-16.384 16.384zM704.412 505.344h-229.376v245.76h229.376v-245.76zM720.796 423.424h-262.144c-9.077 0-16.384-7.34-16.384-16.384v-278.528c0-9.044 7.307-16.384 16.384-16.384h262.144c9.060 0 16.384 7.34 16.384 16.384v278.528c0 9.044-7.324 16.384-16.384 16.384zM704.412 144.896h-229.376v245.76h229.376v-245.76z" />
<glyph unicode="&#xe912;" glyph-name="right" horiz-adv-x="819" d="M0 857.5l819-409.5-819-409.5z" />
<glyph unicode="&#xe913;" glyph-name="next" horiz-adv-x="819" d="M660.186 522.683v0l-437.365 437.317-84.602-84.664 437.317-437.331-417.39-417.354 84.616-84.651 502.018 502.005z" />
<glyph unicode="&#xe914;" glyph-name="star" horiz-adv-x="819" d="M409.5 208.715l-253.166-150.282 64.75 287.195-221.184 194.314 293.126 27.206 116.474 270.418 116.449-270.418 293.151-27.206-221.176-194.314 64.741-287.195z" />
<glyph unicode="&#xe915;" glyph-name="down-direction" horiz-adv-x="819" d="M819 857.5l-409.5-819-409.5 819z" />
<glyph unicode="&#xe916;" glyph-name="up" horiz-adv-x="819" d="M469.235 622.882v0l349.765-349.797-67.71-67.657-349.786 349.765-333.805-333.817-67.699 67.679 401.495 401.516z" />
<glyph unicode="&#xe917;" glyph-name="cart-empty" horiz-adv-x="819" d="M271.262 430.933c3.413 0 8.533 1.724 11.947 5.137l141.653 141.653c6.827 6.827 6.827 17.067 0 22.187-6.827 6.827-17.067 6.827-22.187 0l-141.653-141.653c-6.827-6.827-6.827-17.067 0-22.187 1.707-3.43 5.12-5.137 10.24-5.137zM412.916 430.933c3.413 0 8.533 1.724 11.947 5.137 6.827 6.81 6.827 17.067 0 22.187l-141.653 141.653c-6.827 6.827-17.067 6.827-22.187 0-6.827-6.827-6.827-17.067 0-22.187l141.653-141.653c1.707-3.43 5.12-5.137 10.24-5.137zM493.129 145.92c52.907 0 97.28 42.667 97.28 97.263 0 52.924-42.667 97.28-97.28 97.28s-97.28-42.667-97.28-97.28c0-54.596 44.373-97.263 97.28-97.263zM493.129 306.347c35.84 0 64.853-29.013 64.853-64.853s-29.013-64.853-64.853-64.853c-35.84 0-64.853 30.72-64.853 66.543 0 34.15 29.013 63.164 64.853 63.164zM226.889 145.92c52.907 0 97.28 42.667 97.28 97.263 0 52.924-42.667 97.28-97.28 97.28-52.924 0-97.28-42.667-97.28-97.28 1.707-54.596 44.373-97.263 97.28-97.263zM226.889 306.347c35.84 0 64.853-29.013 64.853-64.853s-29.013-64.853-64.853-64.853c-35.857 0-64.853 29.013-64.853 64.853 1.707 35.84 30.72 64.853 64.853 64.853zM139.849 360.96h440.32c6.827 0 13.653 3.413 15.36 10.24l105.813 288.427c1.707 6.827 18.773 56.32 90.453 40.96 8.533-1.707 17.067 3.413 18.773 11.947s-3.413 17.067-11.947 18.773c-81.92 18.773-121.173-32.427-129.707-63.147l-102.4-276.48h-416.427l-104.124 256h450.577c8.533 0 17.067 6.827 17.067 17.067s-6.827 17.067-17.067 17.067h-472.747c-5.12 0-10.24-3.413-13.653-6.827-3.413-5.12-3.413-10.24-1.707-15.36l116.053-288.427c3.413-6.827 10.24-10.24 15.36-10.24z" />
<glyph unicode="&#xe918;" glyph-name="map-pin" horiz-adv-x="701" d="M351.227 960c-194.164 0-349.99-158.3-349.99-352.464 0-195.401 349.99-670.3 349.99-670.3s349.99 476.135 349.99 670.3c0 195.401-157.063 352.464-349.99 352.464zM351.227 384.928c-123.671 0-223.845 100.174-223.845 223.845s98.937 225.082 223.845 225.082c123.671 0 223.845-100.174 223.845-223.845s-100.174-225.082-223.845-225.082z" />
<glyph unicode="&#xe919;" glyph-name="ico_pin" horiz-adv-x="944" d="M422.347 288.971c0 0 18.792-44.288 84.55-64.422s174.467-12.080 265.729 87.235c91.261 99.315 118.1 284.52 81.865 395.909-34.893 111.395-140.918 197.285-268.414 224.125-131.523 28.182-358.332-21.475-445.567-191.917-87.235-167.757-18.792-285.862-6.712-307.332 25.497-46.973 73.812-68.443 81.865-72.47s20.133-6.712 26.84 10.738c6.712 18.792 12.080 44.288 14.765 49.657 1.342 5.368 8.053 12.080-5.368 28.182s-52.342 65.763-37.577 162.388c14.765 95.288 87.235 189.232 197.285 218.755 108.71 28.182 201.307-1.342 252.307-45.63s77.838-99.315 67.101-217.414c-10.738-118.1-56.368-190.574-111.395-232.179s-114.073-13.422-134.207 4.027c-17.449 14.765-33.55 52.342-26.84 77.838s37.577 127.496 46.973 165.072c9.395 37.577 9.395 63.080-2.685 91.261s-41.603 45.63-80.523 41.603c-38.92-4.027-79.181-49.657-89.918-88.577s-10.738-107.368 10.738-148.972c-10.738-51-61.737-264.387-69.785-297.937s-12.080-60.395-13.422-77.838c-1.342-17.449-1.342-60.395 0-83.208s6.712-65.763 6.712-72.47c0-6.712 9.395-9.395 14.765-2.685 4.027 5.368 49.657 68.443 75.155 118.1 25.497 48.315 29.523 73.812 34.893 93.945 5.368 30.866 30.866 134.207 30.866 134.207z" />
<glyph unicode="&#xe91a;" glyph-name="google" d="M573.384 812.38h-67.909c0 0 40.49-30.036 58.768-67.909 16.981-37.875 26.122-74.446 14.366-117.543-16.981-58.768-65.303-87.504-88.812-107.097-27.428-23.509-44.401-47.017-18.286-80.973 7.839-10.447 56.16-43.098 91.418-71.829 44.401-35.261 63.997-77.053 54.857-144.972s-87.504-139.748-172.393-159.338c-86.195-20.892-201.13-18.286-269.042 16.981-67.909 36.571-99.257 101.872-74.446 165.864s83.588 92.732 139.748 109.704c56.16 16.981 118.846 23.509 146.275 23.509-7.839 14.366-33.956 36.571-33.956 66.606 1.303 30.036 13.062 43.098 13.062 43.098-78.365-6.527-198.516 11.754-218.105 146.275-7.839 52.24 20.892 117.543 67.909 159.338 44.401 39.178 114.927 57.464 181.533 58.768 121.463 1.303 246.837 0 246.837 0l-71.829-40.49zM325.238 339.599c-36.571-5.223-80.973-26.122-97.954-39.178-22.206-16.981-62.687-79.668-18.286-138.435 53.545-70.526 156.722-71.829 211.578-65.303 54.857 7.839 104.482 28.731 118.846 74.446s2.615 77.053-24.812 107.097c-27.428 30.036-91.418 67.909-91.418 67.909s-53.545 0-97.954-6.527zM245.574 731.407c-3.92-52.24-1.303-82.276 22.206-129.293s41.795-61.384 62.687-73.136c20.892-11.754 54.857-19.589 86.195-7.839 32.651 11.754 50.937 28.731 57.464 45.714 7.839 20.892 16.981 54.857-1.303 120.151-16.981 65.303-49.629 94.035-67.909 109.704-14.366 11.754-50.937 27.428-91.418 13.062-41.795-14.366-66.606-54.857-67.909-78.365zM946.906 730.104h-118.846v118.846h-67.909v-118.846h-118.846v-67.909h118.846v-118.846h67.909v118.846h118.846z" />
<glyph unicode="&#xe91b;" glyph-name="youtube" d="M589.479 318.2c-7.453 0-14.96-3.536-22.479-10.863v-151.234c7.519-7.48 15.031-11.083 22.479-11.083 12.941 0 19.564 11.083 19.564 33.468v105.848c0.016 22.44-6.628 33.864-19.564 33.864zM754.016 318.2c-15.031 0-22.578-11.424-22.578-34.403v-22.974h45.018v22.974c0.016 22.974-7.508 34.403-22.44 34.403zM847.445 488.574c-28.254 29.409-59.911 29.535-74.443 31.224-103.895 7.425-259.726 7.425-259.726 7.425h-0.346c0 0-155.831 0-259.82-7.425-14.493-1.689-46.090-1.831-74.376-31.224-22.248-22.44-29.519-73.244-29.519-73.244s-7.37-59.714-7.37-119.421v-56.006c0-59.691 7.37-119.433 7.37-119.433s7.276-50.804 29.519-73.166c28.286-29.409 65.356-28.49 81.84-31.554 59.455-5.681 252.521-7.398 252.521-7.398s156.019 0.22 259.914 7.728c14.536 1.666 46.184 1.831 74.443 31.224 22.259 22.358 29.519 73.166 29.519 73.166s7.37 59.746 7.37 119.433v56.006c0 59.703-7.37 119.421-7.37 119.421s-7.276 50.804-29.535 73.244zM305.459 107.621h-50.078v286.029h-52.949v46.833h156.944v-46.833h-53.9v-286.029zM482.999 107.621h-45.073v27.076c-17.859-20.476-34.925-30.541-51.453-30.541-14.493 0-24.491 5.94-29.040 18.508-2.448 7.508-3.933 19.376-3.933 36.889v196.091h45.029v-182.6c0-10.521 0-16.005 0.33-17.463 1.139-6.969 4.62-10.576 10.599-10.576 9.048 0 18.441 6.969 28.451 21.081v189.559h45.073v-248.024zM654.049 181.991c0-22.864-1.513-39.408-4.549-49.924-6.023-18.48-18.056-27.913-35.931-27.913-16.060 0-31.543 8.894-46.569 27.484v-24.019h-45.061v332.86h45.061v-108.696c14.52 17.859 29.959 26.895 46.569 26.895 17.859 0 29.893-9.46 35.931-27.995 3.041-10.026 4.549-26.373 4.549-49.885v-98.808zM821.515 223.461h-90.063v-43.984c0-22.974 7.551-34.458 23.006-34.458 11.083 0 17.529 6.050 20.114 18.024 0.401 2.448 1.006 12.485 1.006 30.509h45.941v-6.584c0-14.449-0.589-24.42-0.974-28.958-1.485-9.939-5.060-18.948-10.533-26.879-12.458-18.040-30.938-26.95-54.489-26.95-23.524 0-41.443 8.498-54.45 25.481-9.57 12.403-14.449 31.983-14.449 58.316v86.884c0 26.494 4.373 45.831 13.915 58.426 13.008 16.968 30.926 25.426 53.928 25.426 22.589 0 40.519-8.443 53.114-25.426 9.421-12.595 13.954-31.928 13.954-58.426v-51.398zM394.245 552.033v136.235l60.665 200.090h-51.013l-34.414-132.071-35.821 132.071h-53.114c10.686-31.185 21.741-62.48 32.395-93.72 16.143-46.899 26.263-82.253 30.855-106.354v-136.235h50.451zM512.644 548.579c22.77 0 40.453 8.58 53.048 25.63 9.515 12.513 14.151 32.258 14.151 58.944v87.819c0 26.746-4.636 46.294-14.151 58.976-12.611 17.188-30.278 25.713-53.048 25.713-22.743 0-40.464-8.525-52.993-25.713-9.719-12.678-14.218-32.23-14.218-58.976v-87.819c0-26.691 4.494-46.436 14.218-58.944 12.524-17.050 30.25-25.63 52.993-25.63zM490.907 730.069c0 23.183 7.068 34.776 21.741 34.776 14.603 0 21.631-11.605 21.631-34.776v-105.451c0-23.194-7.024-34.788-21.631-34.788-14.669 0-21.741 11.605-21.741 34.788v105.451zM745.585 552.033v250.674h-45.485v-191.604c-10.081-14.218-19.619-21.285-28.71-21.285-6.121 0-9.735 3.646-10.686 10.631-0.578 1.501-0.578 7.013-0.578 17.671v184.596h-45.359v-198.249c0-17.726 1.485-29.716 4.031-37.274 4.565-12.65 14.685-18.606 29.331-18.606 16.555 0 33.825 10.065 51.991 30.8v-27.351h45.469z" />
<glyph unicode="&#xe91c;" glyph-name="instagram" d="M698.395 864h-372.795c-126.595 0-229.599-102.999-229.599-229.605v-372.795c0-126.6 102.993-229.605 229.599-229.605h372.795c126.606 0 229.607 102.999 229.607 229.605v372.795c0.006 126.595-102.993 229.605-229.607 229.605zM854.186 261.605c0-85.899-69.886-155.78-155.786-155.78h-372.801c-85.893-0.006-155.774 69.88-155.774 155.78v372.795c0 85.893 69.88 155.78 155.774 155.78h372.795c85.899 0 155.786-69.886 155.786-155.78v-372.795zM511.997 662.372c-118.217 0-214.381-96.174-214.381-214.381s96.174-214.371 214.381-214.371 214.381 96.17 214.381 214.371c0 118.217-96.174 214.381-214.381 214.381zM511.997 307.441c-77.506 0-140.568 63.050-140.568 140.556s63.051 140.568 140.568 140.568 140.568-63.051 140.568-140.568c0-77.506-63.057-140.556-140.568-140.556zM735.368 724.974c-14.222 0-28.196-5.755-38.242-15.843-10.095-10.040-15.892-24.014-15.892-38.291 0-14.223 5.803-28.202 15.892-38.291 10.040-10.040 24.014-15.843 38.242-15.843 14.274 0 28.202 5.803 38.291 15.843 10.089 10.089 15.843 24.062 15.843 38.291 0 14.274-5.755 28.251-15.843 38.291-10.040 10.089-24.014 15.843-38.291 15.843z" />
<glyph unicode="&#xe91d;" glyph-name="american-express" d="M398.702 349.089l42.113 45.212v-91.985l-42.113 46.773zM264.711 382.95v-20.885h60.176v-23.429h-60.176v-22.831h67.38l31.317 33.711-29.992 33.391-68.727 0.043zM1010.319 365.72c9.363-9.684 13.681-21.591 13.681-37.581 0-34.524-23.151-55.153-61.993-55.153h-53.4c-7.845 0-14.558 4.767-17.401 11.522-10.368-7.354-24.22-11.522-41.215-11.522h-53.4c-3.036 0-5.729 0.834-8.23 2.052-2.501-1.218-5.259-2.052-8.23-2.052h-91.515c-3.036 0-5.793 0.876-8.358 2.138-2.522-1.304-5.301-2.138-8.38-2.138h-27.512c-10.432 0-18.961 8.465-18.961 18.919v16.695c0.043 1.625 0.043 4.083-0.043 6.135-1.283 0.086-3.057 0.171-5.579 0.171h-10.325v-23.002c0-10.432-8.465-18.919-18.961-18.919h-27.555c-10.475 0-18.961 8.465-18.961 18.919v29.18c-9.748-5.793-23.151-9.598-41.685-9.598h-15.242v-19.581c0-10.432-8.465-18.919-18.961-18.919h-53.293c-5.408 0-10.582 2.287-14.173 6.349l-19.859 22.339-20.928-22.638c-3.591-3.891-8.615-6.092-13.895-6.092h-108.616c-10.453 0-18.94 8.465-18.94 18.961v114.73c0 10.475 8.465 18.961 18.94 18.961h110.262c5.408 0 10.517-2.223 14.087-6.306l19.923-22.125 20.757 22.382c3.613 3.891 8.636 6.028 13.916 6.028h87.603c19.175 0 32.664-4.254 42.305-10.517 3.121 6.178 9.363 10.517 16.738 10.517h63.34c14.536 0 28.645-0.534 41.92-7.632 1.368-0.812 2.33-1.881 3.634-2.8 3.142 6.135 9.363 10.432 16.738 10.432h91.493c7.097 0 13.019-4.019 16.311-9.898 9.064 6.157 20.971 9.898 36.084 9.898h54.939c8.273 0 15.028-5.301 17.657-12.655 9.406 7.61 22.318 12.655 39.441 12.655h54.939c10.475 0 18.961-8.465 18.961-18.961v-24.434c0-6.67-3.463-12.527-8.658-15.904 0.192-0.15 0.406-0.363 0.599-0.556zM550.072 368.841c0 31.766-24.477 37.859-46.217 37.859h-87.603l-34.887-37.623-33.776 37.623h-110.262v-114.752h108.616l35.101 37.966 33.776-37.966h53.293v38.5h34.203c23.985-0.064 47.756 6.563 47.756 38.393zM653.943 345.219c7.183 2.886 19.432 12.228 19.432 30.569 0 13.061-5.451 20.244-14.087 25.46-9.042 4.81-19.132 5.387-32.985 5.387h-63.34v-114.73h27.555v41.877h29.286c10.047 0 16.14-0.962 20.073-5.045 5.13-5.344 4.468-15.584 4.468-22.467v-14.365h27.512v22.745c-0.128 10.111-0.641 15.327-4.553 20.928-2.309 3.378-7.29 7.418-13.361 9.641zM780.089 406.636h-91.493v-114.73h91.493v23.793l-64.216 0.128v22.788h62.635v23.429h-62.635v20.885h64.216v23.707zM892.938 328.161c0 11.779-2.843 18.79-8.23 24.327-6.178 6.263-16.418 8.829-31.275 9.235l-14.729 0.428c-4.682 0-7.76 0.299-10.688 1.304-3.442 1.325-5.986 4.211-5.986 8.551 0 3.634 1.133 6.392 4.147 8.273 2.736 1.881 5.964 2.095 10.988 2.095h50.3v24.413h-54.939c-28.773 0-39.205-17.465-39.205-34.16 0-36.277 32.13-34.652 57.739-35.486 4.81 0 7.632-0.791 9.769-2.544 1.924-1.603 3.335-4.233 3.335-7.567 0-3.121-1.325-5.75-3.207-7.503-2.309-2.202-6.007-2.843-11.18-2.843h-53.165v-24.648h53.4c27.555-0.128 42.925 11.394 42.925 36.127zM1005.017 328.161c0 11.779-2.886 18.79-8.23 24.327-6.178 6.263-16.439 8.829-31.317 9.235l-14.729 0.428c-4.682 0-7.738 0.299-10.688 1.304-3.399 1.325-5.964 4.211-5.964 8.551 0 3.634 1.112 6.392 4.126 8.273 2.715 1.881 5.964 2.095 11.009 2.095h50.279v24.413h-54.939c-28.773 0-39.205-17.465-39.205-34.16 0-36.277 32.108-34.652 57.739-35.486 4.831 0 7.653-0.791 9.769-2.544 1.924-1.603 3.335-4.233 3.335-7.567 0-3.121-1.325-5.75-3.207-7.503-2.287-2.202-5.986-2.843-11.159-2.843h-53.186v-24.648h53.4c27.555-0.128 42.968 11.394 42.968 36.127zM503.877 382.95h-35.742v-29.222h35.4c10.539 0 17.102 5.216 17.102 15.114-0.021 10.090-6.841 14.109-16.76 14.109zM519.995 557.108c3.527 1.86 5.644 5.9 5.644 10.902 0 4.917-2.202 8.465-5.75 10.133-3.249 1.838-8.252 2.074-12.997 2.074h-33.776v-25.46h33.327c5.28 0 9.727 0.086 13.553 2.351zM637.376 380.834c-3.335 1.988-8.252 2.074-13.083 2.074h-33.776v-25.759h33.327c5.344 0 9.898 0.171 13.596 2.33 3.549 2.18 5.665 6.092 5.665 11.031-0.064 4.938-2.18 8.487-5.729 10.325zM738.66 584.62l-18.833-45.725h37.859l-19.026 45.725zM69.133 538.895h37.388l-18.769 45.725-18.619-45.725zM222.598 470.446c-7.482 0-14.28 4.425-17.315 11.266l-3.591 8.145v-0.449c0-10.453-8.465-18.94-18.94-18.94h-55.773c-7.696 0-14.622 4.639-17.529 11.736l-5.708 13.852h-31.766l-5.793-13.938c-2.929-7.054-9.833-11.672-17.444-11.672h-29.8c-6.37 0-12.313 3.207-15.819 8.508-3.484 5.344-4.104 12.014-1.582 17.893l49.082 114.73c2.993 6.948 9.833 11.479 17.422 11.479h40.702c7.589 0 14.429-4.511 17.422-11.458l10.282-23.985v16.482c0 10.453 8.465 18.94 18.94 18.94h44.763c7.354 0 14.087-4.297 17.208-11.009l17.935-38.949 16.289 38.393c2.971 7.012 9.833 11.565 17.401 11.565h45.704c3.848 0 7.204-1.432 10.218-3.399 2.993 1.967 6.349 3.399 10.218 3.399h91.579c3.549 0 6.691-1.24 9.491-2.929 2.865 1.689 5.964 2.929 9.513 2.929h63.062c16.311 0 29.842-0.577 42.711-8.016 1.325-0.77 2.223-1.796 3.399-2.651 3.121 6.242 9.384 10.667 16.866 10.667h28.004c9.449 0 16.952-7.054 18.363-16.097 12.27 10.646 28.944 16.097 51.476 16.097h26.486c4.254 0 8.209-1.39 11.351-3.762 3.164 2.394 7.14 3.762 11.308 3.762h41.087c7.567 0 14.408-4.532 17.379-11.479l10.069-23.557v16.097c0 10.453 8.465 18.94 18.94 18.94h41.792c6.605 0 12.741-3.484 16.204-9.149l13.019-21.612v11.843c0 10.453 8.465 18.94 18.961 18.94h28.068c10.432 0 18.94-8.487 18.94-18.94v-114.73c0-10.453-8.465-18.94-18.94-18.94h-38.821c-6.67 0-12.805 3.484-16.247 9.149l-16.824 27.897v-18.106c0-10.453-8.465-18.94-18.94-18.94h-55.794c-7.674 0-14.558 4.617-17.486 11.65l-5.793 13.938h-31.595l-5.579-13.745c-2.886-7.161-9.812-11.864-17.465-11.864h-32.13c-12.185 0-34.075 2.202-49.616 15.263-1.774-8.636-9.042-15.263-18.235-15.263h-28.004c-3.121 0-5.943 0.941-8.572 2.287-2.587-1.325-5.387-2.287-8.487-2.287h-27.662c-10.389 0-18.876 8.401-18.961 18.79l-0.107 14.472 0.043 2.522c0 1.539 0.043 3.848-0.086 5.793-1.261 0.086-2.95 0.15-5.323 0.15h-10.475v-22.788c0-10.453-8.465-18.94-18.94-18.94h-27.448c-3.549 0-6.67 1.24-9.513 2.929-2.8-1.689-5.943-2.929-9.491-2.929h-91.579c-3.869 0-7.225 1.454-10.218 3.399-3.014-1.945-6.37-3.399-10.218-3.399h-28.111c-10.475 0-18.94 8.465-18.94 18.919v0.47l-3.634-8.123c-3.036-6.862-9.791-11.287-17.315-11.287l-24.092 0.043zM613.134 545.885c0-20.843 5.002-34.054 14.707-43.801 9.534-9.727 26.358-12.677 39.676-12.677h32.108l10.304 25.588h56.991l10.688-25.588h55.794v86.106l52.010-86.106h38.842v114.73h-28.068v-79.907l-48.184 79.907h-41.792v-108.51l-46.388 108.51h-41.087l-38.735-90.211h-12.292c-7.161 0-14.857 1.368-19.111 5.921-5.13 5.793-7.567 14.643-7.567 26.914 0 12.035 3.185 21.163 7.867 25.994 5.43 5.323 11.095 6.798 21.078 6.798h25.973v24.584h-26.486c-18.94 0-32.814-4.211-41.642-13.361-11.672-12.313-14.686-27.876-14.686-44.892zM670.126 560.614c-6.434 0-7.097-0.663-7.888-1.432-0.257-0.363-2.18-4.489-2.18-12.441 0-7.867 1.261-11.65 2.18-13.361 0.983-0.257 2.758-0.556 5.387-0.556l11.907 27.769-9.406 0.021zM571.749 489.407h28.004v114.73h-28.004v-114.73zM445.689 489.407h27.448v41.728h29.393c9.876 0 15.99-0.876 19.987-4.895 4.981-5.537 4.318-15.456 4.318-22.339l0.128-14.472h27.662v22.51c0 10.24-0.663 15.327-4.553 21.035-2.437 3.335-7.567 7.354-13.574 9.662 7.097 2.822 19.303 12.292 19.303 30.569 0 12.805-5.195 20.287-13.874 25.417-8.85 5.13-19.175 5.494-33.198 5.494h-63.062v-114.709zM335.106 489.407h91.579v23.728h-64.174v22.916h62.656v23.515h-62.656v20.672h64.174v23.899h-91.579v-114.73zM222.598 489.407h24.092l39.761 89.847 0.107-89.847h28.111v114.73h-45.704l-32.942-77.834-35.892 77.834h-44.763v-108.638l-46.666 108.638h-40.702l-49.103-114.73h29.8l10.646 25.588h57.077l10.539-25.588h55.815v89.933l39.825-89.933z" />
<glyph unicode="&#xe91e;" glyph-name="diners-club" d="M549.236 36.073c-2.327 4.655-2.327 6.982-4.655 11.636l-20.945 60.509c0 0 0 2.327 0 2.327s0 0-2.327 0c0 0 0 0 0 0-2.327-2.327-6.982-4.655-11.636-4.655 0-4.655-2.327-11.636-4.655-13.964l-18.618-53.527c-2.327-4.655-4.655-6.982-9.309-6.982v0 0-4.655c4.655 0 9.309 0 11.636 0 4.655 0 9.309 0 13.964 0v0 4.655h-2.327c-4.655 0-9.309 0-9.309 4.655 0 2.327 2.327 4.655 2.327 9.309l4.655 11.636h25.6l4.655-13.964c2.327-4.655 2.327-6.982 2.327-9.309s-4.655-2.327-6.982-2.327h-2.327v-4.655c6.982 0 11.636 0 18.618 0 4.655 0 11.636 0 16.291 0v0 4.655h-2.327c0 0-2.327 2.327-4.655 4.655zM556.218 26.764c-4.655 0-11.636 0-16.291 0s-11.636 0-18.618 0v4.655h2.327c2.327 0 6.982 0 6.982 2.327s0 4.655-2.327 9.309l-4.655 13.964h-25.6l-4.655-11.636c-2.327-4.655-2.327-6.982-2.327-9.309 0-4.655 4.655-4.655 9.309-4.655h2.327v-4.655c-4.655 0-9.309 0-13.964 0s-9.309 0-11.636 0v4.655c4.655 0 9.309 2.327 9.309 6.982l18.618 53.527c2.327 4.655 4.655 9.309 4.655 13.964 4.655 2.327 9.309 4.655 11.636 4.655 0 0 0 0 0 0s0 0 0 0 0-2.327 0-2.327l20.945-60.509c2.327-4.655 2.327-9.309 4.655-11.636s4.655-4.655 6.982-4.655v0l2.327-4.655zM635.345 108.218c4.655 0 11.636 0 16.291 0s11.636 0 18.618 0v-2.327c-4.655 0-9.309 0-9.309-6.982v-60.509c0-6.982 4.655-6.982 9.309-6.982v0-2.327c-4.655 0-11.636 0-18.618 0-4.655 0-11.636 0-16.291 0v2.327c4.655 0 9.309 0 9.309 6.982v60.509c0 6.982-4.655 6.982-9.309 6.982v0 2.327zM512 96.582v0l-11.636-32.582h20.945l-9.309 32.582zM500.364 64l9.309 32.582 9.309-32.582h-18.618zM628.364 112.873v0c2.327-2.327 0-6.982 0-9.309s0-6.982 0-9.309h-2.327c0 4.655-2.327 11.636-9.309 11.636h-20.945v-62.836c0-9.309 4.655-11.636 9.309-11.636h2.327v-2.327c-4.655 0-11.636 0-18.618 0s-13.964 0-18.618 0v2.327h2.327c6.982 0 9.309 0 9.309 9.309v62.836h-18.618c-9.309 0-9.309-2.327-11.636-11.636h-2.327c0 2.327 0 6.982 2.327 9.309 0 2.327 0 6.982 0 9.309h2.327c0-2.327 4.655-2.327 6.982-2.327v0h60.509c2.327 0 4.655 0 6.982 4.655zM691.2 152.436c-51.2 0-83.782 32.582-83.782 81.455 0 44.218 39.564 76.8 81.455 76.8 18.618 0 34.909-4.655 51.2-11.636l2.327-30.255h-4.655c-4.655 25.6-20.945 34.909-46.545 34.909s-60.509-16.291-60.509-67.491c0-44.218 30.255-74.473 65.164-74.473 20.945 0 39.564 13.964 44.218 37.236l4.655-2.327-4.655-32.582c-9.309-4.655-34.909-11.636-48.873-11.636zM477.091 105.891v4.655c-4.655 0-9.309 0-13.964 0s-11.636 0-16.291 0v0-4.655h2.327c2.327 0 9.309-2.327 9.309-11.636v-44.218l-51.2 58.182c-4.655 0-6.982 0-11.636 0s-9.309 0-13.964 0v0-4.655h2.327c4.655 0 9.309-4.655 9.309-9.309v-48.873c0-9.309-2.327-13.964-9.309-13.964h-2.327v-4.655c4.655 0 11.636 0 16.291 0s9.309 0 16.291 0v0 4.655h-2.327c-9.309 0-11.636 2.327-11.636 13.964v46.545l60.509-67.491h4.655c0 4.655 0 6.982 0 11.636v53.527c-2.327 16.291 2.327 16.291 11.636 16.291v0 0 0zM463.127 91.927v-53.527c0-4.655 0-9.309 0-11.636h-4.655l-60.509 67.491v-48.873c0-9.309 2.327-13.964 11.636-13.964h2.327v-4.655c-4.655 0-9.309 0-16.291 0-4.655 0-11.636 0-16.291 0v4.655h2.327c9.309 0 11.636 4.655 11.636 13.964v48.873c0 6.982-4.655 11.636-11.636 11.636h-2.327v4.655c4.655 0 9.309 0 13.964 0 2.327 0 6.982 0 11.636 0l53.527-58.182v44.218c0 9.309-6.982 11.636-9.309 11.636h-2.327v4.655c4.655 0 11.636 0 16.291 0s9.309 0 13.964 0v-4.655h-2.327c-6.982-2.327-11.636-2.327-11.636-16.291zM626.036 112.873v0c0-4.655-2.327-4.655-6.982-4.655h-60.509c-2.327 0-4.655 0-6.982 2.327v0h-2.327c0-2.327 0-6.982 0-9.309s0-6.982-2.327-9.309v0h4.655c2.327 9.309 2.327 9.309 9.309 9.309h18.618v-62.836c0-9.309-2.327-9.309-9.309-9.309h-2.327v-4.655c4.655 0 13.964 0 20.945 0s13.964 0 18.618 0v0 4.655h-2.327c-4.655 0-9.309 0-9.309 9.309v62.836h18.618c6.982 0 6.982-6.982 9.309-11.636v0l4.655 2.327c0 2.327 0 6.982 0 9.309s0 6.982 2.327 9.309v0l-4.655 2.327zM628.364 103.564c0-2.327 0-6.982 0-9.309l-4.655-2.327c0 4.655 0 11.636-9.309 11.636h-18.618v-62.836c0-9.309 4.655-9.309 9.309-9.309h2.327v-4.655c-4.655 0-11.636 0-18.618 0s-16.291 0-20.945 0v4.655h2.327c6.982 0 9.309 0 9.309 9.309v62.836h-18.618c-9.309 0-9.309-2.327-11.636-11.636h-4.655c0 2.327 0 6.982 2.327 9.309 0 2.327 0 6.982 0 9.309h2.327c0-4.655 4.655-2.327 6.982-2.327h60.509c2.327 0 6.982 0 6.982 4.655h2.327c2.327-2.327 2.327-6.982 2.327-9.309zM549.236 36.073c-2.327 4.655-2.327 6.982-4.655 11.636l-20.945 60.509c0 0 0 2.327 0 2.327s0 0 0 0v0c0 0 0 0 0 0-2.327-2.327-6.982-4.655-11.636-4.655 0-4.655-2.327-9.309-4.655-13.964l-18.618-53.527c-2.327-4.655-6.982-6.982-11.636-6.982v0-2.327c4.655 0 6.982 0 11.636 0s9.309 0 13.964 0v2.327c-4.655 0-9.309 0-9.309 4.655 0 2.327 2.327 4.655 2.327 9.309l4.655 11.636h27.927l4.655-13.964c2.327-4.655 2.327-6.982 2.327-9.309 0-4.655-4.655-4.655-6.982-4.655v0-2.327c6.982 0 11.636 0 16.291 0s11.636 0 16.291 0v2.327c-9.309 2.327-11.636 2.327-11.636 6.982zM500.364 61.673l11.636 34.909 11.636-34.909h-23.273zM328.145 105.891c-4.655 0-4.655 0-6.982 0v-34.909h4.655c11.636 0 18.618 4.655 18.618 18.618 2.327 9.309-4.655 16.291-16.291 16.291zM328.145 70.982h-4.655v34.909c2.327 0 2.327 0 6.982 0 9.309 0 16.291-6.982 16.291-16.291 0-16.291-6.982-18.618-18.618-18.618zM318.836 157.091c-6.982 0-16.291 0-23.273 0s-16.291 0-23.273 0v4.655h4.655c6.982 0 9.309 0 9.309 6.982v55.855c0 11.636-6.982 18.618-20.945 18.618-6.982 0-18.618-4.655-25.6-9.309v-65.164c0-6.982 4.655-6.982 11.636-6.982h4.655v-4.655c-6.982 0-16.291 0-23.273 0s-16.291 0-23.273 0v4.655h4.655c6.982 0 9.309 0 9.309 6.982v58.182c0 6.982-2.327 9.309-11.636 13.964v4.655c9.309 2.327 18.618 6.982 27.927 9.309 0 0 2.327 0 2.327-2.327v-13.964c11.636 9.309 23.273 16.291 37.236 16.291 18.618 0 25.6-13.964 25.6-30.255v-55.855c0-6.982 4.655-6.982 11.636-6.982h4.655c-2.327 0-2.327-4.655-2.327-4.655zM365.382 38.4l-20.945 30.255c9.309 4.655 16.291 9.309 16.291 20.945 0 16.291-11.636 20.945-27.927 20.945-6.982 0-11.636 0-18.618 0s-13.964 0-18.618 0v-2.327h2.327c4.655 0 9.309 0 9.309-9.309v-60.509c0-4.655-4.655-6.982-9.309-6.982h-2.327v-2.327c4.655 0 11.636 0 16.291 0 6.982 0 13.964 0 18.618 0v2.327h-2.327c-4.655 0-9.309 0-9.309 9.309v25.6h6.982c6.982-13.964 16.291-25.6 23.273-37.236 4.655 0 6.982 0 11.636 0s6.982 0 11.636 0v2.327c0 0-4.655 2.327-6.982 6.982zM328.145 68.655h-4.655v34.909c2.327 0 2.327 0 6.982 0 11.636 0 18.618-6.982 18.618-18.618-2.327-11.636-9.309-16.291-20.945-16.291zM365.382 38.4l-20.945 30.255c9.309 4.655 16.291 9.309 16.291 20.945 0 16.291-13.964 20.945-27.927 20.945-6.982 0-11.636 0-18.618 0s-13.964 0-18.618 0v0-4.655h2.327c4.655 0 6.982 0 6.982-9.309v-60.509c0-4.655-4.655-6.982-6.982-6.982h-2.327v-4.655c6.982 0 11.636 0 16.291 0 6.982 0 13.964 0 20.945 0v0 4.655h-2.327c-4.655 0-9.309 0-9.309 9.309v25.6h6.982c6.982-13.964 16.291-25.6 23.273-37.236 4.655 0 6.982 0 11.636 0s6.982 0 11.636 0v0 4.655c-2.327 0-4.655 2.327-9.309 6.982zM377.018 26.764c-4.655 0-6.982 0-11.636 0s-6.982 0-11.636 0c-9.309 11.636-16.291 25.6-25.6 37.236h-6.982v-25.6c0-9.309 4.655-9.309 9.309-9.309h2.327v-4.655c-6.982 0-13.964 0-20.945 0-4.655 0-11.636 0-16.291 0v4.655h2.327c4.655 0 9.309 2.327 9.309 6.982v60.509c0 9.309-4.655 9.309-9.309 9.309h-2.327v2.327c4.655 0 11.636 0 18.618 0s11.636 0 18.618 0c13.964 0 27.927-4.655 27.927-20.945 0-11.636-6.982-16.291-16.291-20.945l20.945-30.255c2.327-4.655 4.655-6.982 11.636-6.982v-2.327zM288.582 47.709v0c-4.655-13.964-9.309-13.964-23.273-13.964-6.982 0-13.964 0-13.964 6.982v27.927h13.964c6.982 0 6.982-4.655 9.309-11.636v0h4.655c0 4.655 0 9.309 0 13.964s0 9.309 0 13.964v0h-4.655c0-6.982-2.327-9.309-9.309-9.309h-13.964v30.255h16.291c11.636 0 13.964-4.655 13.964-13.964v0h4.655c0 2.327 0 6.982 0 11.636 0 2.327 0 4.655 0 6.982v0 0c-6.982 0-20.945 0-30.255 0s-20.945 0-30.255 0v0-4.655h2.327c4.655 0 9.309 0 9.309-6.982v-60.509c0-4.655-4.655-6.982-9.309-6.982h-2.327v-4.655c6.982 0 20.945 0 30.255 0 11.636 0 23.273 0 32.582 0v0 0c0 6.982 2.327 11.636 4.655 18.618v0l-4.655 2.327zM288.582 26.764c-6.982 0-20.945 0-32.582 0s-25.6 0-30.255 0v4.655h2.327c4.655 0 9.309 0 9.309 6.982v60.509c0 6.982-4.655 6.982-9.309 6.982h-2.327v4.655c6.982 0 18.618 0 30.255 0 9.309 0 20.945 0 30.255 0 0-4.655 0-13.964 0-18.618h-4.655c0 6.982-2.327 13.964-13.964 13.964h-16.291v-30.255h13.964c6.982 0 9.309 4.655 9.309 9.309h4.655c0-4.655 0-9.309 0-13.964s0-9.309 0-13.964h-4.655c0 6.982 0 11.636-9.309 11.636h-13.964v-27.927c0-6.982 6.982-6.982 13.964-6.982 13.964 0 20.945 0 23.273 13.964h2.327c0-6.982-2.327-13.964-2.327-20.945zM460.8 108.218c4.655 0 9.309 0 13.964 0v-2.327h-2.327c-4.655 0-11.636-2.327-11.636-16.291v-53.527c0-4.655 0-6.982 0-11.636h-4.655l-60.509 67.491v-48.873c0-9.309 2.327-13.964 11.636-13.964h2.327v-2.327c-4.655 0-9.309 0-13.964 0s-9.309 0-16.291 0v2.327h2.327c9.309 0 11.636 6.982 11.636 16.291v48.873c0 6.982-4.655 11.636-11.636 11.636v0 2.327c4.655 0 9.309 0 13.964 0s6.982 0 11.636 0l53.527-58.182v44.218c0 9.309-6.982 11.636-11.636 11.636h-2.327v2.327c4.655 0 9.309 0 13.964 0zM456.145 50.036v0 0 0zM651.636 110.545c-4.655 0-13.964 0-16.291 0v0-4.655h2.327c4.655 0 9.309 0 9.309-6.982v-60.509c0-4.655-4.655-6.982-9.309-6.982h-2.327v-4.655c4.655 0 11.636 0 16.291 0 6.982 0 13.964 0 18.618 0v0 4.655h-2.327c-4.655 0-9.309 0-9.309 6.982v60.509c0 4.655 4.655 6.982 9.309 6.982h2.327v4.655c-4.655 0-13.964 0-18.618 0zM670.255 105.891v0c-6.982 0-9.309 0-9.309-6.982v-60.509c0-6.982 4.655-6.982 9.309-6.982h2.327v-4.655c-4.655 0-11.636 0-18.618 0-4.655 0-11.636 0-16.291 0v4.655h2.327c4.655 0 9.309 0 9.309 6.982v60.509c0 6.982-4.655 6.982-9.309 6.982h-2.327v4.655c4.655 0 11.636 0 16.291 0 6.982 0 13.964 0 18.618 0l-2.327-4.655zM1005.382 38.4c2.327 2.327 2.327 4.655 4.655 9.309h2.327c-2.327-6.982-2.327-11.636-4.655-18.618-9.309 0-20.945 0-30.255 0s-20.945 0-30.255 0v2.327h2.327c4.655 0 9.309 0 9.309 9.309v58.182c0 6.982-4.655 6.982-9.309 6.982h-2.327v2.327c6.982 0 11.636 0 18.618 0s11.636 0 16.291 0v-2.327h-2.327c-4.655 0-9.309 0-9.309-6.982v-60.509c0-4.655 4.655-6.982 6.982-6.982s4.655 0 6.982 0c2.327 0 6.982 0 9.309 0 4.655 2.327 9.309 4.655 11.636 6.982zM933.236 36.073c-2.327 4.655-2.327 6.982-4.655 11.636l-20.945 60.509c0 0 0 2.327 0 2.327s0 0 0 0v0c0 0 0 0 0 0-2.327-2.327-6.982-4.655-9.309-4.655 0-4.655-2.327-9.309-4.655-13.964l-18.618-53.527c-2.327-4.655-6.982-6.982-11.636-6.982v0-2.327c4.655 0 6.982 0 11.636 0s9.309 0 13.964 0v2.327c-4.655 0-9.309 0-9.309 4.655 0 2.327 2.327 4.655 2.327 9.309l4.655 11.636h27.927l4.655-13.964c2.327-4.655 2.327-6.982 2.327-9.309 0-4.655-4.655-4.655-6.982-4.655v0-2.327c6.982 0 11.636 0 16.291 0s11.636 0 16.291 0v2.327c-9.309 2.327-13.964 2.327-13.964 6.982zM884.364 61.673l11.636 34.909 11.636-34.909h-23.273zM896 96.582v0l-11.636-32.582h20.945l-9.309 32.582zM884.364 64l9.309 32.582 9.309-32.582h-18.618zM1007.709 47.709v0c0-2.327-2.327-6.982-4.655-9.309s-6.982-4.655-11.636-6.982c-2.327 0-6.982 0-9.309 0s-4.655 0-6.982 0-6.982 2.327-6.982 6.982v60.509c0 6.982 2.327 4.655 6.982 6.982h2.327v4.655c-6.982 0-11.636 0-18.618 0s-11.636 0-18.618 0v0-4.655h2.327c4.655 0 9.309 0 9.309-6.982v-60.509c0-6.982-4.655-6.982-9.309-6.982h-2.327v-4.655c9.309 0 20.945 0 30.255 0s20.945 0 30.255 0v0 0c2.327 6.982 2.327 13.964 4.655 20.945v0h2.327zM1007.709 26.764c-9.309 0-20.945 0-30.255 0s-20.945 0-30.255 0v4.655h2.327c4.655 0 9.309 0 9.309 6.982v60.509c0 6.982-4.655 6.982-9.309 6.982h-2.327v4.655c6.982 0 11.636 0 18.618 0s11.636 0 18.618 0v-4.655h-2.327c-4.655 0-6.982 0-6.982-6.982v-60.509c0-4.655 2.327-6.982 6.982-6.982s9.309 0 16.291 0c4.655 0 9.309 2.327 11.636 6.982 2.327 2.327 2.327 6.982 4.655 9.309h2.327c-6.982-6.982-6.982-13.964-9.309-20.945zM1010.036 112.873c-6.982 0-11.636-4.655-11.636-11.636s4.655-11.636 11.636-11.636c6.982 0 11.636 4.655 11.636 11.636 2.327 6.982-4.655 11.636-11.636 11.636zM1010.036 89.6c-4.655 0-9.309 4.655-9.309 9.309s4.655 9.309 9.309 9.309c4.655 0 9.309-4.655 9.309-9.309 2.327-4.655-2.327-9.309-9.309-9.309zM1012.364 98.909c2.327 0 2.327 2.327 2.327 4.655s-2.327 2.327-4.655 2.327h-6.982c2.327 0 2.327 0 2.327-2.327v-9.309c0 0 0 0-2.327 0v0h6.982c-2.327 0-2.327 0-2.327 0v4.655h4.655c0-4.655 2.327-6.982 2.327-6.982h2.327c0 0-2.327 2.327-2.327 2.327l-2.327 4.655zM1010.036 101.236v0l-2.327 6.982h2.327c2.327 0 2.327 0 2.327-2.327 0-4.655 0-4.655-2.327-4.655zM933.236 36.073c-2.327 4.655-2.327 6.982-4.655 11.636l-20.945 60.509c0 0 0 2.327 0 2.327s0 0-2.327 0c0 0 0 0 0 0-2.327-2.327-6.982-4.655-11.636-4.655 0-4.655-2.327-11.636-4.655-13.964l-18.618-53.527c-2.327-4.655-4.655-6.982-9.309-6.982v0 0-4.655c4.655 0 9.309 0 11.636 0 4.655 0 9.309 0 13.964 0v0 4.655h-2.327c-4.655 0-9.309 0-9.309 4.655 0 2.327 2.327 4.655 2.327 9.309l4.655 11.636h25.6l4.655-13.964c2.327-4.655 2.327-6.982 2.327-9.309s-4.655-2.327-6.982-2.327h-2.327v-4.655c6.982 0 11.636 0 18.618 0 4.655 0 11.636 0 16.291 0v0 4.655h-2.327c0 0-2.327 2.327-4.655 4.655zM942.545 26.764c-4.655 0-11.636 0-16.291 0s-11.636 0-18.618 0v4.655h2.327c2.327 0 6.982 0 6.982 2.327s0 4.655-2.327 9.309l-4.655 13.964h-25.6l-4.655-11.636c0-4.655-2.327-6.982-2.327-9.309 0-4.655 4.655-4.655 9.309-4.655h2.327v-4.655c-4.655 0-9.309 0-13.964 0s-9.309 0-11.636 0v4.655c4.655 0 9.309 2.327 9.309 6.982l18.618 53.527c2.327 4.655 4.655 9.309 4.655 13.964 4.655 2.327 9.309 4.655 11.636 4.655 0 0 0 0 0 0s0 0 0 0 0-2.327 0-2.327l20.945-60.509c2.327-4.655 2.327-9.309 4.655-11.636s4.655-4.655 6.982-4.655v0l2.327-4.655zM716.8 112.873c-25.6 0-44.218-18.618-44.218-44.218v0c0-25.6 18.618-41.891 44.218-41.891s44.218 18.618 44.218 46.545c2.327 23.273-18.618 39.564-44.218 39.564zM716.8 24.436c-25.6 0-44.218 16.291-44.218 41.891s18.618 44.218 44.218 44.218c25.6 0 44.218-16.291 44.218-39.564 0-27.927-18.618-46.545-44.218-46.545zM716.8 110.545c-23.273 0-41.891-18.618-41.891-41.891 0-25.6 18.618-41.891 44.218-41.891s44.218 18.618 44.218 44.218c-2.327 23.273-20.945 39.564-46.545 39.564zM719.127 29.091c-18.618 0-30.255 20.945-30.255 41.891 0 16.291 6.982 34.909 27.927 34.909s30.255-20.945 30.255-39.564c0-16.291-4.655-37.236-27.927-37.236zM716.8 105.891c-20.945 0-25.6-18.618-25.6-34.909 0-20.945 9.309-41.891 27.927-41.891 23.273 0 27.927 20.945 27.927 37.236-2.327 18.618-11.636 39.564-30.255 39.564zM719.127 31.418c-18.618 0-27.927 18.618-27.927 41.891 0 16.291 6.982 32.582 25.6 32.582s27.927-20.945 27.927-37.236c0-18.618-2.327-37.236-25.6-37.236zM844.8 108.218c4.655 0 9.309 0 13.964 0v-2.327h-2.327c-4.655 0-11.636-2.327-11.636-16.291v-53.527c0-4.655 0-6.982 0-11.636h-4.655l-60.509 67.491v-48.873c0-9.309 2.327-13.964 11.636-13.964h2.327v-2.327c-4.655 0-9.309 0-13.964 0s-9.309 0-16.291 0v2.327h2.327c9.309 0 11.636 6.982 11.636 16.291v48.873c0 6.982-4.655 11.636-11.636 11.636v0 2.327c4.655 0 9.309 0 13.964 0s6.982 0 11.636 0l53.527-58.182v44.218c0 9.309-6.982 11.636-11.636 11.636h-2.327v2.327c4.655 0 9.309 0 13.964 0zM861.091 105.891v4.655c-4.655 0-9.309 0-13.964 0s-11.636 0-16.291 0v0-4.655h2.327c2.327 0 9.309-2.327 9.309-11.636v-44.218l-51.2 58.182c-4.655 0-6.982 0-11.636 0s-9.309 0-13.964 0v0-4.655h2.327c4.655 0 9.309-4.655 9.309-9.309v-48.873c0-9.309-2.327-13.964-9.309-13.964h-2.327v-4.655c4.655 0 11.636 0 16.291 0s9.309 0 13.964 0v0 4.655h-2.327c-9.309 0-9.309 2.327-11.636 13.964v46.545l60.509-67.491h4.655c0 4.655 0 6.982 0 11.636v53.527c0 13.964 4.655 13.964 9.309 13.964l4.655 2.327zM847.127 91.927v-53.527c0-4.655 0-9.309 0-11.636h-4.655l-60.509 67.491v-48.873c0-9.309 2.327-13.964 11.636-13.964h2.327v-4.655c-4.655 0-9.309 0-16.291 0-4.655 0-11.636 0-16.291 0v4.655h2.327c9.309 0 11.636 4.655 11.636 13.964v48.873c0 6.982-4.655 11.636-11.636 11.636h-2.327v4.655c4.655 0 9.309 0 13.964 0s6.982 0 9.309 0l53.527-58.182v44.218c0 9.309-6.982 11.636-9.309 11.636h-2.327v4.655c4.655 0 11.636 0 16.291 0s9.309 0 13.964 0v-4.655h-2.327c-2.327-2.327-9.309-2.327-9.309-16.291zM840.145 50.036v0 0 0zM216.436 112.873v0c0-4.655-2.327-4.655-6.982-4.655h-60.509c-2.327 0-4.655 0-6.982 2.327v0h-2.327c0-2.327 0-6.982 0-9.309s0-6.982-2.327-9.309v0h4.655c2.327 9.309 2.327 9.309 9.309 9.309h18.618v-62.836c0-9.309-2.327-9.309-9.309-9.309h-2.327v-4.655c4.655 0 13.964 0 20.945 0s13.964 0 18.618 0v0 4.655h-2.327c-4.655 0-9.309 0-9.309 9.309v62.836h18.618c6.982 0 6.982-6.982 9.309-11.636v0l4.655 2.327c0 2.327 0 6.982 0 9.309s0 6.982 2.327 9.309v0l-4.655 2.327zM218.764 103.564c0-2.327 0-6.982 0-9.309l-4.655-2.327c0 4.655 0 11.636-9.309 11.636h-18.618v-62.836c0-9.309 4.655-9.309 9.309-9.309h2.327v-4.655c-4.655 0-13.964 0-18.618 0-6.982 0-16.291 0-20.945 0v4.655h2.327c6.982 0 9.309 0 9.309 9.309v62.836h-18.618c-9.309 0-9.309-2.327-11.636-11.636h-4.655c0 2.327 0 6.982 2.327 9.309 0 2.327 0 6.982 0 9.309h2.327c0-4.655 4.655-2.327 6.982-2.327h60.509c2.327 0 6.982 0 6.982 4.655h2.327c4.655-2.327 2.327-6.982 2.327-9.309zM116.364 50.036v0 0 0zM437.527 219.927v-51.2c0-6.982 4.655-6.982 9.309-6.982h11.636v-4.655c-11.636 0-20.945 0-30.255 0s-18.618 0-25.6 0v4.655h6.982c6.982 0 9.309 0 9.309 6.982v60.509c0 6.982-6.982 6.982-11.636 9.309v2.327c16.291 6.982 25.6 11.636 25.6 11.636 2.327 0 2.327 0 2.327-2.327v-18.618c4.655 9.309 13.964 23.273 27.927 23.273 4.655 0 11.636-4.655 11.636-11.636s-4.655-11.636-9.309-11.636c-6.982 0-6.982 4.655-13.964 4.655-2.327 2.327-13.964-2.327-13.964-16.291zM530.618 175.709c0 25.6-46.545 16.291-46.545 51.2 0 11.636 9.309 27.927 32.582 27.927 6.982 0 16.291-2.327 25.6-6.982l2.327-20.945h-4.655c-2.327 13.964-9.309 20.945-23.273 20.945-9.309 0-16.291-4.655-16.291-13.964 0-25.6 51.2-18.618 51.2-51.2 0-13.964-11.636-30.255-37.236-30.255-9.309 0-18.618 2.327-25.6 6.982l-2.327 25.6h4.655c2.327-13.964 11.636-25.6 27.927-25.6 6.982 0 11.636 9.309 11.636 16.291zM18.618 110.545c-4.655 0-11.636 0-18.618 0v0-4.655h2.327c4.655 0 9.309 0 9.309-6.982v-60.509c0-4.655-4.655-6.982-9.309-6.982h-2.327v-4.655c4.655 0 11.636 0 16.291 0 6.982 0 13.964 0 18.618 0v0 4.655h-2.327c-4.655 0-9.309 0-9.309 6.982v60.509c0 4.655 4.655 6.982 9.309 6.982h2.327v4.655c-4.655 0-11.636 0-16.291 0zM37.236 105.891v0c-6.982 0-9.309 0-9.309-6.982v-60.509c0-6.982 4.655-6.982 9.309-6.982h2.327v-4.655c-4.655 0-11.636 0-18.618 0-4.655 0-11.636 0-16.291 0v4.655h2.327c4.655 0 9.309 0 9.309 6.982v60.509c0 6.982-4.655 6.982-9.309 6.982h-2.327v4.655c4.655 0 11.636 0 18.618 0s13.964 0 18.618 0v-4.655zM121.018 108.218c4.655 0 9.309 0 13.964 0v-2.327h-2.327c-4.655 0-11.636-2.327-11.636-16.291v-53.527c0-4.655 0-6.982 0-11.636h-4.655l-60.509 67.491v-48.873c0-9.309 2.327-13.964 11.636-13.964h2.327v-2.327c-4.655 0-9.309 0-13.964 0s-9.309 0-16.291 0v2.327c9.309 0 11.636 6.982 11.636 16.291v48.873c0 6.982-4.655 11.636-11.636 11.636v0 2.327c4.655 0 9.309 0 13.964 0s6.982 0 11.636 0l53.527-58.182v44.218c0 9.309-6.982 11.636-11.636 11.636h-2.327v2.327c4.655 0 11.636 0 16.291 0zM18.618 108.218c4.655 0 11.636 0 18.618 0v-2.327c-4.655 0-9.309 0-9.309-6.982v-60.509c0-6.982 4.655-6.982 9.309-6.982v0-2.327c-4.655 0-11.636 0-18.618 0-4.655 0-11.636 0-16.291 0v2.327c4.655 0 9.309 0 9.309 6.982v60.509c0 6.982-4.655 6.982-9.309 6.982v0 2.327c2.327 0 9.309 0 16.291 0zM395.636 215.273v0c2.327 2.327 2.327 4.655 2.327 4.655 0 23.273-18.618 34.909-37.236 34.909-16.291 0-44.218-11.636-44.218-55.855 0-13.964 6.982-46.545 41.891-46.545 18.618 0 30.255 11.636 39.564 25.6l-2.327 2.327c-6.982-6.982-16.291-13.964-30.255-13.964-16.291 0-30.255 16.291-32.582 37.236 0 6.982 0 11.636 0 11.636h62.836zM360.727 247.855c11.636 0 18.618-9.309 18.618-20.945 0-2.327 0-4.655-6.982-4.655h-37.236c4.655 16.291 11.636 25.6 25.6 25.6zM60.509 157.091c76.8 0 88.436 53.527 88.436 74.473 0 37.236-30.255 76.8-86.109 76.8-16.291 0-27.927 0-37.236 0s-16.291 0-25.6 0v-4.655c9.309 0 20.945 0 20.945-18.618v0-104.727c0-13.964-6.982-13.964-20.945-16.291v-4.655c9.309 0 18.618 0 27.927 0 11.636-2.327 23.273-2.327 32.582-2.327zM41.891 299.055c4.655 0 6.982 0 16.291 0 41.891 0 67.491-30.255 67.491-69.818 0-32.582-16.291-67.491-62.836-67.491-11.636 0-23.273 2.327-23.273 18.618l2.327 118.691zM169.891 299.055c0 4.655 4.655 9.309 11.636 9.309 4.655 0 11.636-4.655 11.636-9.309 0-6.982-4.655-11.636-11.636-11.636-6.982 2.327-11.636 6.982-11.636 11.636zM500.364 480.582v274.618c55.855-20.945 93.091-74.473 93.091-137.309s-37.236-116.364-93.091-137.309zM765.673 168.727v121.018c0 13.964-2.327 13.964-11.636 16.291v2.327c9.309 2.327 18.618 6.982 23.273 9.309 2.327 2.327 4.655 2.327 4.655 2.327 2.327 0 2.327-2.327 2.327-2.327v-148.945c0-6.982 4.655-6.982 11.636-6.982h4.655v-4.655c-6.982 0-13.964 0-23.273 0-6.982 0-16.291 0-23.273 0v4.655h4.655c2.327 0 6.982 0 6.982 6.982zM181.527 157.091c-6.982 0-16.291 0-23.273 0v4.655h4.655c6.982 0 9.309 0 9.309 6.982v58.182c0 9.309-2.327 11.636-11.636 13.964v2.327c9.309 2.327 23.273 6.982 23.273 6.982 2.327 0 2.327 0 4.655 0 0 0 2.327-2.327 2.327-2.327v-83.782c0-6.982 4.655-6.982 11.636-6.982h4.655v-4.655c-9.309 4.655-18.618 4.655-25.6 4.655zM916.945 289.745v-93.091c0-13.964 0-25.6-2.327-39.564l4.655-2.327 6.982 4.655c4.655-2.327 13.964-6.982 30.255-6.982 30.255 0 51.2 27.927 51.2 55.855 0 23.273-13.964 46.545-39.564 46.545-11.636 0-23.273-9.309-32.582-16.291v79.127c0 2.327 0 2.327-2.327 2.327 0 0-2.327 0-4.655-2.327-4.655-2.327-13.964-6.982-23.273-9.309v-2.327c6.982-2.327 11.636-2.327 11.636-16.291zM933.236 233.891c6.982 4.655 11.636 9.309 20.945 9.309 16.291 0 34.909-18.618 34.909-41.891 0-18.618-9.309-41.891-32.582-41.891-13.964 0-23.273 13.964-23.273 20.945v53.527zM288.582 45.382h2.327c-2.327-6.982-2.327-11.636-4.655-18.618-6.982 0-20.945 0-30.255 0s-23.273 0-30.255 0v2.327c4.655 0 9.309 0 9.309 6.982v62.836c0 6.982-4.655 6.982-9.309 6.982v0 2.327c6.982 0 18.618 0 27.927 0s20.945 0 30.255 0c0-2.327 0-4.655 0-4.655 0-4.655 0-9.309 0-11.636h-2.327c0 6.982-2.327 13.964-13.964 13.964h-16.291v-32.582h13.964c6.982 0 9.309 4.655 9.309 9.309h2.327c0-4.655 0-9.309 0-13.964s0-9.309 0-13.964h-2.327c0 6.982-2.327 11.636-9.309 11.636h-13.964v-27.927c0-9.309 6.982-9.309 13.964-9.309 13.964 2.327 18.618 4.655 23.273 16.291zM828.509 189.673c0-6.982 0-25.6 18.618-25.6 6.982 0 16.291 4.655 25.6 13.964v58.182c0 4.655-9.309 6.982-18.618 9.309v4.655c18.618 2.327 32.582 2.327 32.582 2.327 2.327 0 2.327-2.327 2.327-4.655v-79.127c0-4.655 2.327-4.655 6.982-4.655 2.327 0 6.982 0 9.309 0v-4.655c-9.309 0-27.927-4.655-30.255-6.982v0 18.618c-13.964-11.636-23.273-18.618-37.236-18.618-11.636 0-23.273 6.982-23.273 25.6v55.855c0 4.655 0 11.636-13.964 11.636v4.655c6.982 0 25.6 2.327 27.927 2.327s2.327-2.327 2.327-6.982l-2.327-55.855zM218.764 112.873v0c2.327-2.327 0-6.982 0-9.309s0-6.982 0-9.309h-2.327c0 4.655-2.327 11.636-9.309 11.636h-20.945v-62.836c0-9.309 4.655-11.636 9.309-11.636h2.327v-2.327c-4.655 0-11.636 0-18.618 0s-13.964 0-18.618 0v2.327h2.327c6.982 0 9.309 0 9.309 9.309v62.836h-20.945c-9.309 0-9.309-2.327-11.636-11.636h-2.327c0 2.327 0 6.982 2.327 9.309 0 2.327 0 6.982 0 9.309h2.327c0-2.327 4.655-2.327 6.982-2.327v0h60.509c4.655 0 9.309 0 9.309 4.655zM446.836 364.218h118.691c137.309 0 262.982 111.709 262.982 251.345 0 151.273-125.673 253.673-262.982 253.673h-118.691c-139.636 0-253.673-104.727-253.673-253.673 0-137.309 114.036-251.345 253.673-251.345zM449.164 848.291c128 0 230.4-102.4 230.4-230.4s-102.4-230.4-230.4-230.4c-128 0-230.4 102.4-230.4 230.4-2.327 128 102.4 230.4 230.4 230.4zM121.018 110.545c-4.655 0-11.636 0-16.291 0v0-4.655h2.327c2.327 0 9.309-2.327 9.309-11.636v-44.218l-51.2 58.182c-4.655 0-6.982 0-11.636 0s-9.309 0-13.964 0v0-4.655h2.327c4.655 0 9.309-4.655 9.309-9.309v-48.873c0-9.309-2.327-13.964-9.309-13.964h-2.327v-4.655c4.655 0 11.636 0 16.291 0s9.309 0 16.291 0v0 4.655h-2.327c-9.309 0-9.309 2.327-11.636 13.964v46.545l60.509-67.491h4.655c0 4.655 0 6.982 0 11.636v53.527c0 13.964 4.655 13.964 9.309 13.964h2.327v4.655c-4.655 2.327-9.309 2.327-13.964 2.327zM134.982 105.891v0c-6.982 0-11.636 0-11.636-13.964v-53.527c0-4.655 0-9.309 0-11.636h-4.655l-60.509 67.491v-48.873c0-9.309 2.327-13.964 11.636-13.964h2.327v-4.655c-4.655 0-9.309 0-16.291 0-4.655 0-11.636 0-16.291 0v4.655h2.327c6.982 0 11.636 4.655 11.636 13.964v48.873c0 6.982-4.655 11.636-11.636 11.636h-2.327v4.655c4.655 0 9.309 0 13.964 0s6.982 0 11.636 0l53.527-58.182v44.218c0 9.309-6.982 11.636-9.309 11.636h-2.327v4.655c4.655 0 11.636 0 16.291 0s9.309 0 13.964 0l-2.327-6.982zM302.545 617.891c0 62.836 39.564 116.364 93.091 137.309v-274.618c-55.855 20.945-93.091 74.473-93.091 137.309z" />
<glyph unicode="&#xe91f;" glyph-name="discover" d="M762.666 540.546h-78.462v141.911h78.462v-24.047h-50.806v-31.5h48.969v-24.026h-48.969v-38.313h50.806v-24.026zM808.731 540.546h-27.656v141.911h41.046c31.906 0 50.229-15.334 50.229-41.901 0-21.74-11.511-35.985-32.333-40.235l44.677-59.776h-34.084l-38.291 57.021h-3.588v-57.021zM808.731 617.129h8.051c17.683 0 27.079 7.667 27.079 21.933 0 13.796-9.354 21.014-26.61 21.014h-8.5l-0.021-42.947zM610.377 536.916l61.313 145.52h-29.963l-38.355-95.312-37.822 95.312h-30.24l60.224-145.52h14.842zM882.986 668.149h-2.99v12.472h4.015c3.033 0 4.741-1.345 4.741-3.865 0-1.73-0.961-3.011-2.712-3.481l4.058-5.125h-3.631l-3.502 4.848v-4.848h0.021zM882.986 675.068h0.47c1.474 0 2.264 0.534 2.264 1.644 0 1.068-0.747 1.602-2.221 1.602h-0.513v-3.246zM129.524 540.546h27.656v141.911h-27.656v-141.911zM116.753 611.384c0-20.886-9.546-41.068-25.734-54.437-13.646-11.297-29.151-16.423-50.592-16.423h-40.427v141.911h40.576c44.89 0.021 76.177-29.172 76.177-71.051zM88.264 611.619c0 13.604-5.766 26.802-15.355 35.323-9.14 8.265-19.989 11.468-37.822 11.468h-7.432v-93.838h7.432c17.854 0 29.151 3.438 37.822 11.276 9.61 8.521 15.355 22.125 15.355 35.771zM468.466 535.528c33.871 0 62.595 22.317 72.077 53.048 0.448 1.303 0.705 2.627 1.089 3.93 0.256 1.111 0.577 2.2 0.79 3.289 1.046 4.912 1.538 10.016 1.538 15.248 0 41.666-33.785 75.451-75.494 75.451-31.244 0-58.11-19.007-69.535-46.108-3.844-9.034-5.916-18.964-5.916-29.386 0-41.666 33.785-75.472 75.451-75.472zM349.256 537.386c11.938 0 22.146 2.306 34.704 8.265v32.589c-11.062-11.084-20.865-15.569-33.401-15.569-27.87 0-47.624 20.224-47.624 48.948 0 27.229 20.395 48.734 46.343 48.734 13.219 0 23.235-4.72 34.704-15.974v32.547c-12.13 6.172-22.146 8.713-34.042 8.713-41.922 0-75.536-32.995-75.536-74.255-0.021-41.666 32.717-73.999 74.853-73.999zM873.739 674.406c0 6.044 4.826 10.87 10.913 10.87 5.852 0 10.721-4.912 10.721-10.87 0-5.98-4.869-10.87-10.721-10.87-6.044 0-10.913 4.826-10.913 10.87zM875.939 674.385c0-4.933 3.93-8.905 8.606-8.905 4.784 0 8.628 4.015 8.628 8.905s-3.908 8.927-8.628 8.927-8.606-3.972-8.606-8.927zM1024 209.507v271.755c0 0-265.989-187.698-753.206-271.734h753.206zM224.879 628.021c-16.636 6.129-21.527 10.208-21.527 17.854 0 8.948 8.713 15.739 20.651 15.739 8.265 0 15.099-3.417 22.317-11.511l14.479 18.986c-11.938 10.4-26.161 15.718-41.708 15.718-25.115 0-44.207-17.427-44.207-40.641 0-19.541 8.884-29.557 34.874-38.911 10.849-3.823 16.359-6.364 19.135-8.073 5.553-3.609 8.307-8.735 8.307-14.693 0-11.49-9.14-20.032-21.484-20.032-13.177 0-23.855 6.62-30.197 18.943l-17.896-17.234c12.771-18.729 28.062-27.037 49.097-27.037 28.788 0 48.969 19.135 48.969 46.599-0.021 22.552-9.375 32.781-40.811 44.292z" />
</font>
</defs>
</svg>
